<svg width="48" height="48" fill="none" xmlns="http://www.w3.org/2000/svg"><path d="M48 22.5A24 24 0 0025.5.05V0h-3v.05A24 24 0 00.05 22.5H0v3h.05A24 24 0 0022.5 48h3A24 24 0 0048 25.5v-3zm-4 0h-7.4c-.22-6.68-1.87-12.62-4.38-16.71a20 20 0 0111.7 16.71H44zM27.07 43.74c-.52.08-1 .14-1.57.18V25.5h8.09c-.3 8.87-3.21 15.58-6.52 18.24zM14.41 25.5h8.09v18.42c-.53 0-1.05-.1-1.57-.18-3.31-2.66-6.22-9.37-6.52-18.24zm6.52-21.24c.52-.08 1-.14 1.57-.18V22.5h-8.09c.3-8.87 3.21-15.58 6.52-18.24zM25.5 22.5V4.08c.53 0 1.05.1 1.57.18 3.31 2.66 6.22 9.37 6.52 18.24H25.5zM15.78 5.79c-2.51 4.09-4.16 10-4.38 16.71H4.08a20 20 0 0111.7-16.71zM4.08 25.5h7.32c.22 6.68 1.87 12.62 4.38 16.71A20 20 0 014.08 25.5zm28.14 16.71c2.51-4.09 4.16-10 4.38-16.71h7.32a20 20 0 01-11.7 16.71z" fill="#fff"/></svg>