<svg width="52" height="34" fill="none" xmlns="http://www.w3.org/2000/svg"><path opacity=".95" d="M9.975 24.65c-1.085 0-1.952.858-1.952 1.9 0 1.073.867 1.931 1.952 1.931 1.053 0 1.951-.858 1.951-1.931 0-1.042-.898-1.9-1.951-1.9zm21.219 0c-1.084 0-1.952.858-1.952 1.9 0 1.073.868 1.931 1.952 1.931a1.933 1.933 0 001.951-1.931c0-1.042-.867-1.9-1.951-1.9zm6.784 1.992c0-2.637-2.168-4.752-4.802-4.752H7.466c-2.665 0-4.802 2.115-4.802 4.752 0 2.606 2.137 4.752 4.801 4.752h25.711c2.634 0 4.802-2.146 4.802-4.752zM11.709 12.509c.248.184.496.337.713.551h12.7L21.157 2.115H11.71V12.51zm28.933 14.133c0 4.047-3.346 7.358-7.466 7.358H7.466C3.345 34 0 30.689 0 26.642c0-2.207.96-4.17 2.51-5.518v-3.649c0-3.25 2.663-5.917 5.978-5.917.371 0 .743.062 1.084.123V1.073C9.572.491 10.068 0 10.656 0h11.307c.495 0 .93.337 1.022.797l4.399 12.6h.62c0 .185-.032.369-.032.553v3.31l.031 1.993h5.173c4.12 0 7.466 3.311 7.466 7.389zM51.98 16.617c-.031.122-.155.214-.28.306l-6.195 3.005-3.469 1.471c-.062.031-.155.031-.217.031a.495.495 0 01-.434-.245.485.485 0 01.093-.675l1.332-1.195 2.107-2.024-3.47-5.886a.644.644 0 010-.583.593.593 0 01.527-.214l2.323.306-2.85-4.844-3.097.89-5.05 10.883h-5.297v-2.606h3.594l4.832-10.485 6.288-1.747 4.926 8.4 1.735.215c.154.03.31.153.402.306l2.169 4.262c.062.122.062.276.03.429z" fill="#fff"/></svg>