<svg width="56" height="31" fill="none" xmlns="http://www.w3.org/2000/svg"><g opacity=".9" fill="#fff"><path d="M56 16.654l-2.334-4.765-4.668-9.506-11.665.01V1.191c0-.403-.2-.78-.532-.998a1.144 1.144 0 00-1.109-.09L25.418 4.765H1.167a1.16 1.16 0 00-.936.48A1.21 1.21 0 00.05 6.3l3.422 11.649-1.122 6.9c-.056.346.04.698.261.965.222.267.547.421.89.421h1.284C5.324 28.953 7.678 31 10.499 31c1.91 0 3.603-.937 4.668-2.382C16.23 30.063 17.924 31 19.833 31c2.822 0 5.176-2.047 5.716-4.766h11.9C37.991 28.953 40.344 31 43.166 31c2.821 0 5.176-2.047 5.716-4.766h7.094l.024-9.58zm-4.944-4.765h-9.073V4.77l5.575-.004 3.498 7.122zM39.65 4.774v7.115h-2.308l.003-7.113 2.305-.002zM2.735 7.148h22.93c.164 0 .325-.035.475-.103l8.858-4.02v13.653H5.535l-2.8-9.53zm7.764 21.468C8.57 28.616 7 27.014 7 25.044c0-1.972 1.57-3.574 3.5-3.574s3.5 1.602 3.5 3.574c0 1.97-1.57 3.572-3.5 3.572zm9.334 0c-1.93 0-3.5-1.602-3.5-3.572 0-1.972 1.57-3.574 3.5-3.574s3.5 1.602 3.5 3.574c0 1.97-1.57 3.572-3.5 3.572zm5.716-4.764c-.54-2.72-2.894-4.766-5.716-4.766-1.909 0-3.602.937-4.666 2.384-1.065-1.447-2.759-2.384-4.668-2.384-2.526 0-4.678 1.642-5.488 3.937l.644-3.962h29.343v4.79h-9.45zm17.617 4.764c-1.93 0-3.5-1.602-3.5-3.572 0-1.972 1.57-3.574 3.5-3.574 1.929 0 3.5 1.602 3.5 3.574 0 1.97-1.571 3.572-3.5 3.572zm10.482-4.764h-4.766c-.54-2.72-2.895-4.766-5.716-4.766-2.822 0-5.177 2.047-5.717 4.766h-.114l.005-9.581h14.885l1.44 2.942-.017 6.639z"/><path d="M43.165 23.852a1.18 1.18 0 00-1.167 1.192c0 .656.523 1.19 1.167 1.19a1.18 1.18 0 001.168-1.19 1.18 1.18 0 00-1.168-1.192zm-32.665 0c-.645 0-1.167.532-1.167 1.192 0 .656.522 1.19 1.166 1.19a1.18 1.18 0 001.168-1.19 1.18 1.18 0 00-1.168-1.192zm9.333 0a1.18 1.18 0 00-1.167 1.192c0 .656.523 1.19 1.167 1.19a1.18 1.18 0 001.166-1.19c0-.66-.522-1.192-1.166-1.192zm-10.5-10.747h21a1.18 1.18 0 001.167-1.191 1.18 1.18 0 00-1.167-1.191h-21c-.644 0-1.167.533-1.167 1.191s.523 1.191 1.167 1.191z"/></g></svg>