<svg width="30" height="8" viewBox="0 0 30 8" fill="none" xmlns="http://www.w3.org/2000/svg">
<path opacity="0.8" d="M5.78876 0.203917C6.11173 0.462762 6.11173 0.873103 5.78876 1.13191L2.94694 3.33272L29.137 3.33272C29.6136 3.33272 30 3.63176 30 4.00065C30 4.36955 29.6136 4.66859 29.137 4.66859L2.94689 4.66859L5.78876 6.86807C6.11987 7.13341 6.11036 7.55624 5.76758 7.8125C5.43313 8.0625 4.90295 8.0625 4.5685 7.8125L0.253532 4.47291C-0.0838966 4.21238 -0.0846043 3.78948 0.251965 3.52832L0.253532 3.52711L4.5685 0.187519C4.91134 -0.0687828 5.45765 -0.0614252 5.78876 0.203917Z" fill="white"/>
</svg>
