<svg width="40" height="40" viewBox="0 0 40 40" fill="none" xmlns="http://www.w3.org/2000/svg">
<path d="M19.9667 15.5658C20.8527 15.5642 21.7192 15.8255 22.4565 16.3167C23.1939 16.8079 23.7688 17.5068 24.1086 18.325C24.4484 19.1432 24.5378 20.0438 24.3653 20.9129C24.1929 21.7819 23.7664 22.5802 23.14 23.2066C22.5135 23.8331 21.7152 24.2595 20.8462 24.432C19.9772 24.6044 19.0766 24.5151 18.2584 24.1753C17.4402 23.8355 16.7412 23.2605 16.25 22.5232C15.7589 21.7858 15.4975 20.9193 15.4992 20.0334C15.5014 18.8492 15.9728 17.7141 16.8101 16.8768C17.6475 16.0394 18.7826 15.568 19.9667 15.5658ZM19.9667 12.238C18.423 12.238 16.9139 12.6959 15.6304 13.5538C14.3469 14.4116 13.3467 15.6309 12.7563 17.0573C12.1659 18.4837 12.0119 20.0532 12.3136 21.5672C12.6154 23.0812 13.3595 24.4716 14.4517 25.5627C15.5439 26.6537 16.9351 27.3963 18.4494 27.6964C19.9637 27.9966 21.5331 27.8409 22.9588 27.249C24.3846 26.657 25.6028 25.6555 26.4593 24.3711C27.3158 23.0867 27.7721 21.5772 27.7704 20.0334C27.7704 19.009 27.5685 17.9946 27.1762 17.0483C26.784 16.102 26.209 15.2423 25.4843 14.5183C24.7595 13.7943 23.8992 13.2203 22.9524 12.829C22.0057 12.4378 20.9911 12.2369 19.9667 12.238Z" fill="white"/>
<path d="M38.3361 18.3028H35.9235C35.5254 14.6585 33.889 11.2611 31.2877 8.67797C28.6864 6.09483 25.2776 4.48235 21.6306 4.10982V1.66389C21.6306 1.2226 21.4553 0.799384 21.1433 0.487343C20.8312 0.175303 20.408 0 19.9667 0C19.5254 0 19.1022 0.175303 18.7902 0.487343C18.4781 0.799384 18.3028 1.2226 18.3028 1.66389V4.10982C14.6678 4.49666 11.2745 6.11546 8.68655 8.69732C6.09864 11.2792 4.47189 14.6687 4.07654 18.3028H1.66389C1.2226 18.3028 0.799384 18.4781 0.487343 18.7902C0.175303 19.1022 0 19.5254 0 19.9667C0 20.408 0.175303 20.8312 0.487343 21.1433C0.799384 21.4553 1.2226 21.6306 1.66389 21.6306H4.06822C4.43346 25.2914 6.04795 28.7149 8.64028 31.3254C11.2326 33.9359 14.6447 35.5742 18.3028 35.9651V38.3361C18.3028 38.7774 18.4781 39.2006 18.7902 39.5127C19.1022 39.8247 19.5254 40 19.9667 40C20.408 40 20.8312 39.8247 21.1433 39.5127C21.4553 39.2006 21.6306 38.7774 21.6306 38.3361V35.9651C25.3013 35.5901 28.7298 33.9586 31.3358 31.3465C33.9418 28.7344 35.5654 25.3022 35.9318 21.6306H38.3361C38.7774 21.6306 39.2006 21.4553 39.5127 21.1433C39.8247 20.8312 40 20.408 40 19.9667C40 19.5254 39.8247 19.1022 39.5127 18.7902C39.2006 18.4781 38.7774 18.3028 38.3361 18.3028ZM19.9667 32.7205C17.4589 32.7139 15.0092 31.9642 12.9272 30.5661C10.8452 29.1681 9.22421 27.1843 8.26904 24.8654C7.31388 22.5466 7.06737 19.9967 7.56066 17.5378C8.05395 15.0789 9.26491 12.8214 11.0406 11.0504C12.8162 9.27937 15.0769 8.07434 17.5371 7.58749C19.9972 7.10064 22.5465 7.35383 24.8628 8.31506C27.1792 9.27629 29.1587 10.9025 30.5513 12.9881C31.9439 15.0738 32.6872 17.5254 32.6872 20.0333C32.685 21.7016 32.3542 23.3531 31.7138 24.8936C31.0734 26.434 30.1358 27.8333 28.9546 29.0114C27.7734 30.1895 26.3717 31.1234 24.8295 31.7598C23.2874 32.3962 21.635 32.7227 19.9667 32.7205Z" fill="white"/>
</svg>
