<svg width="14" height="14" fill="none" xmlns="http://www.w3.org/2000/svg"><path d="M.538 9.643c.298 0 .539.24.539.535v2.215c0 .295.241.535.538.535h10.77c.297 0 .538-.24.538-.535v-2.215c0-.296.241-.535.538-.535.298 0 .539.24.539.535v2.215C14 13.28 13.277 14 12.385 14H1.615C.723 14 0 13.28 0 12.393v-2.215c0-.296.241-.535.538-.535z" fill="#fff"/><path d="M3.94 7.264a.54.54 0 01.747 0l1.774 1.764V.536a.538.538 0 011.077 0v8.492l1.774-1.764a.54.54 0 01.761.013.534.534 0 010 .745L7.381 10.7a.54.54 0 01-.762.001L3.925 8.02a.534.534 0 01.013-.757z" fill="#fff"/></svg>