<svg width="132" height="120" viewBox="16 12 132 120" fill="none" xmlns="http://www.w3.org/2000/svg"><path fill="#fff" d="M16 12h132v120H16z"/><path d="M83.994 79.757a24.17 24.17 0 01-9.554-1.986 23.85 23.85 0 01-7.946-5.59 1.237 1.237 0 01-.387-.906 1.22 1.22 0 01.406-.898 1.26 1.26 0 01.943-.322 1.27 1.27 0 01.884.457 21.309 21.309 0 0010.542 6.161c4.053.989 8.311.78 12.244-.6a21.223 21.223 0 009.868-7.163 20.714 20.714 0 004.204-11.339c.019-.326.169-.63.416-.848a1.267 1.267 0 011.377-.192 1.243 1.243 0 01.639.71c.054.153.076.316.066.478-.349 5.958-2.998 11.558-7.404 15.655-4.407 4.097-10.237 6.38-16.298 6.383zm-21.128-15.66a1.25 1.25 0 00.74-.603c.155-.29.187-.629.089-.942a20.607 20.607 0 01.311-13.194 20.967 20.967 0 018.275-10.383 21.492 21.492 0 0112.941-3.437c4.578.26 8.948 1.97 12.456 4.877a1.27 1.27 0 001.77-.148 1.224 1.224 0 00-.15-1.743 23.959 23.959 0 00-13.93-5.455 24.033 24.033 0 00-14.473 3.844 23.445 23.445 0 00-9.252 11.613 23.043 23.043 0 00-.346 14.755c.098.313.319.575.613.728.294.153.638.185.956.088zM56.69 75.728c12.046-10.106 26.447-17.117 41.917-20.406a.319.319 0 01.305.097.308.308 0 01.06.31l-2.135 5.167a.39.39 0 00.131.472.406.406 0 00.497-.015l16.684-13.522a.755.755 0 00.25-.734.762.762 0 00-.539-.564l-20.952-5.561a.408.408 0 00-.454.199.39.39 0 00.09.48l4.845 3.968a.297.297 0 01.105.278.295.295 0 01-.193.229C93.46 47.486 68.427 56.842 55.635 74.8a.69.69 0 00.057.983.714.714 0 00.998-.056z" fill="url(#paint0_linear)"/><path d="M41.444 86.312c1.135 0 2.126.237 2.974.71a4.69 4.69 0 011.945 1.965c.461.848.692 1.814.692 2.899 0 1.471-.38 2.818-1.141 4.04a8.35 8.35 0 01-3.049 2.88 8.343 8.343 0 01-4.077 1.047c-1.097 0-2.082-.193-2.955-.58a4.871 4.871 0 01-2.057-1.758l2.281-1.795c.711 1.035 1.733 1.552 3.068 1.552.997 0 1.901-.287 2.712-.86a4.872 4.872 0 001.758-2.244H38.19l.448-2.32h5.293c-.074-.91-.392-1.627-.953-2.15-.55-.537-1.279-.805-2.189-.805-1.334 0-2.556.518-3.666 1.553l-1.57-1.796a7.632 7.632 0 012.655-1.72 8.585 8.585 0 013.236-.618zm15.82 6.64l3.067 6.677h-3.255l-2.356-5.293h-2.226l-1.066 5.293h-3.03l2.619-13.092h3.03L52.98 91.83h2.002l4.507-5.293h3.404l-5.63 6.415zm11.687 6.901c-1.31 0-2.457-.237-3.442-.71-.972-.474-1.72-1.141-2.244-2.002-.524-.86-.786-1.851-.786-2.973 0-1.484.337-2.818 1.01-4.003a7.38 7.38 0 012.88-2.824c1.235-.686 2.65-1.029 4.246-1.029 1.172 0 2.207.2 3.105.599.898.399 1.577.972 2.038 1.72l-2.188 1.796c-.698-1.023-1.752-1.534-3.16-1.534-.96 0-1.809.225-2.544.674a4.682 4.682 0 00-1.72 1.833c-.4.772-.6 1.633-.6 2.58 0 1.01.319 1.815.954 2.413.649.586 1.553.88 2.712.88 1.384 0 2.544-.506 3.48-1.516l1.795 1.833c-1.297 1.509-3.142 2.263-5.536 2.263zm21.942-13.316l-2.618 13.092h-2.993l2.077-10.624h-5.91L79.352 99.63H76.36l2.618-13.092h11.914zm6.145 2.431l-.561 2.843h6.078l-.467 2.357h-6.097l-.599 3.03h7.145l-.505 2.43H91.894l2.619-13.091h9.894l-.505 2.431h-6.864zm15.652-2.431c1.633 0 2.892.361 3.778 1.084.898.711 1.346 1.709 1.346 2.993 0 1.097-.261 2.057-.785 2.88-.511.81-1.247 1.434-2.207 1.87-.948.437-2.07.655-3.367.655h-2.917l-.711 3.61h-3.049l2.619-13.092h5.293zm-1.104 7.013c1.01 0 1.789-.23 2.338-.692.549-.461.823-1.122.823-1.982 0-.624-.212-1.091-.636-1.403-.411-.312-1.01-.468-1.795-.468h-2.376l-.916 4.545h2.562zm18.93-4.544h-4.227l-2.094 10.623h-2.993l2.095-10.624h-4.134l.487-2.468h11.353l-.487 2.468z" fill="#7B303E"/><path d="M87.835 105.835v5.237h-.957v-4.414h-2.065l-.045 1.31c-.025.733-.085 1.329-.18 1.788-.094.453-.246.8-.456 1.039-.21.235-.499.352-.868.352a2.6 2.6 0 01-.53-.075l.067-.845c.064.02.14.03.224.03.304 0 .519-.18.643-.539.13-.364.21-.935.24-1.713l.075-2.17h3.852zm4.197 5.312a3.018 3.018 0 01-1.444-.344 2.608 2.608 0 01-1.01-.965 2.67 2.67 0 01-.367-1.384c0-.509.123-.968.367-1.377a2.546 2.546 0 011.01-.965c.429-.234.91-.351 1.444-.351.534 0 1.015.117 1.444.351.429.23.765.549 1.01.958.244.409.366.87.366 1.384 0 .514-.122.975-.366 1.384a2.608 2.608 0 01-1.01.965 3.02 3.02 0 01-1.444.344zm0-.853c.349 0 .663-.077.943-.232a1.74 1.74 0 00.658-.658c.16-.284.24-.601.24-.95s-.08-.664-.24-.943a1.669 1.669 0 00-.658-.658c-.28-.16-.594-.24-.943-.24-.35 0-.663.08-.943.24a1.66 1.66 0 00-.658.658c-.16.279-.24.594-.24.943s.08.666.24.95c.16.279.379.499.658.658.28.155.594.232.943.232zm7.748-3.636h-2.596l.008 4.414h-.958v-5.237h3.554l-.008.823zm1.13-.823h.957v3.719l2.813-3.719h.906v5.237h-.958v-3.71l-2.813 3.71h-.905v-5.237zm8.852 5.312a3 3 0 01-1.436-.344 2.628 2.628 0 01-1.003-.965 2.691 2.691 0 01-.359-1.384c0-.514.122-.975.367-1.384a2.572 2.572 0 011.002-.958 2.951 2.951 0 011.437-.351c.429 0 .82.074 1.174.224.354.15.654.367.898.651l-.628.591a1.835 1.835 0 00-1.399-.614c-.36 0-.681.08-.966.24a1.66 1.66 0 00-.665.651c-.16.279-.24.596-.24.95s.08.671.24.95c.159.279.381.499.665.658.285.155.606.232.966.232.553 0 1.019-.207 1.399-.621l.628.599a2.387 2.387 0 01-.905.651 3 3 0 01-1.175.224zm7.024-4.489h-1.735v4.414h-.965v-4.414h-1.729v-.823h4.429v.823zm1.146-.823h.957v3.719l2.813-3.719h.906v5.237h-.958v-3.71l-2.813 3.71h-.905v-5.237zm8.373 3.03h-.972v2.207h-.958v-5.237h.958v2.192h1.002l1.504-2.192h1.032l-1.788 2.537 1.856 2.7h-1.1l-1.534-2.207z" fill="#7D868C"/><defs><linearGradient id="paint0_linear" x1="55.51" y1="56.385" x2="114.425" y2="56.385" gradientUnits="userSpaceOnUse"><stop stop-color="#D0082D"/><stop offset="1" stop-color="#9D2037"/></linearGradient><filter id="filter0_d" x="0" y="0" width="164" height="152" filterUnits="userSpaceOnUse" color-interpolation-filters="sRGB"><feFlood flood-opacity="0" result="BackgroundImageFix"/><feColorMatrix in="SourceAlpha" values="0 0 0 0 0 0 0 0 0 0 0 0 0 0 0 0 0 0 127 0"/><feOffset dy="4"/><feGaussianBlur stdDeviation="8"/><feColorMatrix values="0 0 0 0 0.532751 0 0 0 0 0.528098 0 0 0 0 0.528098 0 0 0 0.15 0"/><feBlend in2="BackgroundImageFix" result="effect1_dropShadow"/><feBlend in="SourceGraphic" in2="effect1_dropShadow" result="shape"/></filter></defs></svg>