<svg xmlns="http://www.w3.org/2000/svg" xmlns:xlink="http://www.w3.org/1999/xlink"><symbol id="icon-arrow-left"><path opacity=".8" d="M5.789.204c.323.259.323.67 0 .928l-2.842 2.2h26.19c.477 0 .863.3.863.669 0 .369-.386.668-.863.668H2.947l2.842 2.2c.33.264.321.687-.021.944-.335.25-.865.25-1.2 0L.255 4.473c-.338-.26-.339-.684-.002-.945h.002L4.569.187c.342-.257.889-.25 1.22.016z" fill="#fff"/></symbol><symbol id="icon-arrow-less"><path d="M13 7L7 1 1 7" stroke="#fff"/></symbol><symbol id="icon-arrow-more"><path d="M1 1l6 6 6-6" stroke="#fff"/></symbol><symbol id="icon-arrow-small"><path d="M15.176 8.77a.776.776 0 010-1.043l2.368-2.476H.72C.322 5.25 0 4.914 0 4.499s.322-.751.72-.751h16.824l-2.368-2.475a.775.775 0 01.018-1.062.697.697 0 01.999 0l3.596 3.757a.775.775 0 01.001 1.063l-.001.001-3.596 3.757a.698.698 0 01-1.017-.018z" fill="#fff"/></symbol><symbol id="icon-arrow"><path d="M48.282 11.694a.911.911 0 010-1.392l3.789-3.301H1.15C.515 7 0 6.552 0 5.999c0-.553.515-1.002 1.15-1.002h50.92l-3.788-3.3c-.442-.397-.43-1.031.028-1.416a1.277 1.277 0 011.599 0l5.753 5.01c.45.39.45 1.025.002 1.417l-.002.001-5.753 5.01c-.457.384-1.186.373-1.627-.025z" fill="#fff"/></symbol><symbol id="icon-attach-file"><path d="M10.364 5.455V18A4.362 4.362 0 016 22.364 4.362 4.362 0 011.636 18V4.364a2.728 2.728 0 015.455 0v11.454a1.09 1.09 0 11-2.182 0V5.455H3.273v10.363a2.728 2.728 0 005.454 0V4.364A4.362 4.362 0 004.364 0 4.362 4.362 0 000 4.364V18a6 6 0 0012 0V5.455h-1.636z" fill="#383838" opacity=".8"/></symbol><symbol id="icon-bulldozer"><path opacity=".95" d="M9.975 24.65c-1.085 0-1.952.858-1.952 1.9 0 1.073.867 1.931 1.952 1.931 1.053 0 1.951-.858 1.951-1.931 0-1.042-.898-1.9-1.951-1.9zm21.219 0c-1.084 0-1.952.858-1.952 1.9 0 1.073.868 1.931 1.952 1.931a1.933 1.933 0 001.951-1.931c0-1.042-.867-1.9-1.951-1.9zm6.784 1.992c0-2.637-2.168-4.752-4.802-4.752H7.466c-2.665 0-4.802 2.115-4.802 4.752 0 2.606 2.137 4.752 4.801 4.752h25.711c2.634 0 4.802-2.146 4.802-4.752zM11.709 12.509c.248.184.496.337.713.551h12.7L21.157 2.115H11.71V12.51zm28.933 14.133c0 4.047-3.346 7.358-7.466 7.358H7.466C3.345 34 0 30.689 0 26.642c0-2.207.96-4.17 2.51-5.518v-3.649c0-3.25 2.663-5.917 5.978-5.917.371 0 .743.062 1.084.123V1.073C9.572.491 10.068 0 10.656 0h11.307c.495 0 .93.337 1.022.797l4.399 12.6h.62c0 .185-.032.369-.032.553v3.31l.031 1.993h5.173c4.12 0 7.466 3.311 7.466 7.389zM51.98 16.617c-.031.122-.155.214-.28.306l-6.195 3.005-3.469 1.471c-.062.031-.155.031-.217.031a.495.495 0 01-.434-.245.485.485 0 01.093-.675l1.332-1.195 2.107-2.024-3.47-5.886a.644.644 0 010-.583.593.593 0 01.527-.214l2.323.306-2.85-4.844-3.097.89-5.05 10.883h-5.297v-2.606h3.594l4.832-10.485 6.288-1.747 4.926 8.4 1.735.215c.154.03.31.153.402.306l2.169 4.262c.062.122.062.276.03.429z" fill="#fff"/></symbol><symbol id="icon-bullet-active"><path d="M0 0h59l5 6-5 6H0l5-6-5-6z" fill="#E75333"/></symbol><symbol id="icon-bullet"><path d="M0 0h59l5 6-5 6H0l5-6-5-6z" fill="#fff"/></symbol><symbol id="icon-bus"><g opacity=".9" fill="#fff"><path d="M52.5 0h-49C1.57 0 0 1.587 0 3.536V23.57c0 1.95 1.57 3.535 3.5 3.535h1.166C4.666 30.356 7.284 33 10.5 33c3.216 0 5.834-2.645 5.834-5.894h21c0 3.25 2.615 5.894 5.831 5.894C46.383 33 49 30.355 49 27.106h3.5c1.931 0 3.5-1.585 3.5-3.535V3.536C56 1.586 54.431 0 52.5 0zM42 7.071h11.665v7.071H42v-7.07zM3.5 24.748a1.173 1.173 0 01-1.166-1.177h3.502c-.27.362-.498.757-.68 1.177H3.5zm7 5.894c-1.93 0-3.5-1.585-3.5-3.536 0-1.95 1.57-3.535 3.5-3.535s3.5 1.584 3.5 3.535-1.57 3.536-3.5 3.536zm5.345-5.894c-.902-2.079-2.958-3.536-5.345-3.536H2.334V3.536c0-.65.523-1.179 1.166-1.179h49c.642 0 1.165.53 1.165 1.179v1.179H5.834c-.645 0-1.168.527-1.168 1.178v9.428c0 .651.523 1.179 1.168 1.179h12.832v8.248h-2.821zM35 14.142v-7.07h4.666v7.07H35zm-28 0v-7.07h4.666v7.07H7zm7-7.07h4.666v7.07H14v-7.07zm7 0h4.666v7.07H21v-7.07zm11.666 7.07H28v-7.07h4.666v7.07zM21 16.5h4.666v8.248H21V16.5zm7 0h4.666v8.248H28V16.5zm15.165 14.142c-1.927 0-3.5-1.585-3.5-3.536 0-1.95 1.573-3.535 3.5-3.535 1.931 0 3.5 1.584 3.5 3.535s-1.568 3.536-3.5 3.536zm9.335-5.894h-3.99c-.902-2.079-2.957-3.536-5.346-3.536-2.385 0-4.441 1.458-5.343 3.536H35V16.5h18.665v2.358h-2.33c-.647 0-1.17.526-1.17 1.177s.523 1.177 1.17 1.177h2.33v2.359c0 .649-.523 1.177-1.165 1.177z"/><path d="M9.675 26.274a1.183 1.183 0 000 1.665 1.153 1.153 0 001.65 0 1.183 1.183 0 000-1.665 1.153 1.153 0 00-1.65 0zm32.666 0a1.186 1.186 0 000 1.665 1.155 1.155 0 001.651 0 1.186 1.186 0 000-1.665 1.155 1.155 0 00-1.65 0z"/></g></symbol><symbol id="icon-car"><g opacity=".9" fill="#F7F7F7"><path d="M12.833 20.703c-.644 0-1.167.545-1.167 1.215 0 .673.523 1.219 1.167 1.219s1.166-.546 1.166-1.219c0-.67-.522-1.215-1.166-1.215z"/><path d="M53.872 10.51c-2.021-1.93-5.525-1.99-12.382-1.99-.542-.856-1.687-2.432-3.582-3.997C35.408 2.46 31.054 0 24.5 0c-6.553 0-10.914 2.458-13.417 4.519-1.9 1.564-3.05 3.14-3.594 3.995h-1.37a2.253 2.253 0 00-.57 0h-2.05c-.308 0-.605.128-.824.356L.342 11.302a1.245 1.245 0 00-.342.86v8.54c0 .339.136.663.374.895.29.278 2.904 2.73 5.437 2.73h1.666C8.372 26.485 10.436 28 12.834 28c2.396 0 4.46-1.514 5.357-3.674l19.619-.003C38.705 26.486 40.77 28 43.166 28c2.399 0 4.462-1.514 5.357-3.677h6.311c.643 0 1.166-.542 1.166-1.215 0-7.034 0-10.565-2.128-12.598zM36.367 6.355c.926.753 1.648 1.51 2.186 2.16h-15.22V2.461c.384-.02.773-.03 1.167-.03 4.676 0 8.668 1.32 11.867 3.923zM12.62 6.354c2.375-1.927 5.183-3.15 8.38-3.655v5.815H10.427a15.9 15.9 0 012.193-2.16zm-8.636 4.592h.682v1.217h-1.85l1.168-1.217zm8.85 14.62c-1.93 0-3.5-1.635-3.5-3.648 0-2.01 1.57-3.65 3.5-3.65 1.929 0 3.5 1.64 3.5 3.65 0 2.013-1.571 3.648-3.5 3.648zm30.331 0c-1.927 0-3.5-1.635-3.5-3.648 0-2.01 1.573-3.65 3.5-3.65 1.931 0 3.5 1.64 3.5 3.65 0 2.013-1.569 3.648-3.5 3.648zM49 21.893c-.014-3.343-2.625-6.054-5.835-6.054-3.206 0-5.817 2.711-5.83 6.054h-18.67c-.014-3.343-2.625-6.054-5.832-6.054-3.208 0-5.82 2.711-5.833 6.054H5.81c-1.149 0-2.68-1.084-3.477-1.75v-5.548h3.5c.644 0 1.166-.545 1.166-1.216v-2.433h33.739c.03.003.065.005.097.005 6.243 0 9.784 0 11.298 1.212h-1.982c-.646 0-1.167.544-1.167 1.216 0 .671.521 1.216 1.167 1.216h3.161c.315 1.647.35 4.037.353 7.298H49z"/><path d="M43.165 20.703c-.643 0-1.166.545-1.166 1.215 0 .673.523 1.219 1.166 1.219.646 0 1.169-.546 1.169-1.219 0-.67-.523-1.215-1.17-1.215zm-16.331-7.325H24.5c-.645 0-1.167.544-1.167 1.216 0 .672.523 1.217 1.167 1.217h2.333c.645 0 1.167-.545 1.167-1.217 0-.671-.522-1.216-1.166-1.216z"/></g></symbol><symbol id="icon-delete" viewBox="0 0 11 11">
<path fill-rule="evenodd" clip-rule="evenodd" d="M5.00121 5.70902L9.29273 10.0012L9.99989 9.29414L5.70826 5.00186L10.0024 0.707053L9.29525 0L5.00121 4.2947L0.707161 0L0 0.707053L4.29415 5.00186L0.00252664 9.29414L0.709687 10.0012L5.00121 5.70902Z" fill="#5A5E57"/>
</symbol><symbol id="icon-download"><path d="M.538 9.643c.298 0 .539.24.539.535v2.215c0 .295.241.535.538.535h10.77c.297 0 .538-.24.538-.535v-2.215c0-.296.241-.535.538-.535.298 0 .539.24.539.535v2.215C14 13.28 13.277 14 12.385 14H1.615C.723 14 0 13.28 0 12.393v-2.215c0-.296.241-.535.538-.535z" fill="#fff"/><path d="M3.94 7.264a.54.54 0 01.747 0l1.774 1.764V.536a.538.538 0 011.077 0v8.492l1.774-1.764a.54.54 0 01.761.013.534.534 0 010 .745L7.381 10.7a.54.54 0 01-.762.001L3.925 8.02a.534.534 0 01.013-.757z" fill="#fff"/></symbol><symbol id="icon-file" viewBox="0 0 12 24">
<g opacity="0.8">
<path d="M10.3636 5.45455V18C10.3636 20.4109 8.41091 22.3636 6 22.3636C3.58909 22.3636 1.63636 20.4109 1.63636 18V4.36364C1.63636 2.85818 2.85818 1.63636 4.36364 1.63636C5.86909 1.63636 7.09091 2.85818 7.09091 4.36364V15.8182C7.09091 16.4182 6.60545 16.9091 6 16.9091C5.39455 16.9091 4.90909 16.4182 4.90909 15.8182V5.45455H3.27273V15.8182C3.27273 17.3236 4.49455 18.5455 6 18.5455C7.50545 18.5455 8.72727 17.3236 8.72727 15.8182V4.36364C8.72727 1.95273 6.77455 0 4.36364 0C1.95273 0 0 1.95273 0 4.36364V18C0 21.3164 2.68909 24 6 24C9.31091 24 12 21.3164 12 18V5.45455H10.3636Z" fill="#383838"/>
</g>
</symbol><symbol id="icon-invalid"><path fill-rule="evenodd" clip-rule="evenodd" d="M5.001 5.709l4.292 4.292.707-.707-4.292-4.292L10.002.707 9.295 0 5.001 4.295.707 0 0 .707l4.294 4.295L.003 9.294l.707.707L5 5.71z" fill="#D9453D"/></symbol><symbol id="icon-mail"><path d="M16.2 0H1.8C.81 0 .009.787.009 1.75L0 12.25C0 13.213.81 14 1.8 14h14.4c.99 0 1.8-.787 1.8-1.75V1.75C18 .787 17.19 0 16.2 0zm0 12.25H1.8V3.5L9 7.875 16.2 3.5v8.75zM9 6.125L1.8 1.75h14.4L9 6.125z" fill="#111"/></symbol><symbol id="icon-operator"><path d="M19.28.013C8.44.403 0 9.643 0 20.493v7.08a2.44 2.44 0 002.44 2.44h2.12A2.44 2.44 0 007 27.573v-7.12a2.44 2.44 0 00-2.44-2.44h-.42a16 16 0 0116.36-14 16.21 16.21 0 0115.3 14h-.36a2.44 2.44 0 00-2.44 2.44v7.12a2.43 2.43 0 002.34 2.44 15.5 15.5 0 01-12.4 13.14 3.34 3.34 0 100 3 18.49 18.49 0 0015.46-16.29 2.45 2.45 0 001.6-2.29v-7.56a19.999 19.999 0 00-20.72-20z" fill="#fff"/></symbol><symbol id="icon-planet"><path d="M48 22.5A24 24 0 0025.5.05V0h-3v.05A24 24 0 00.05 22.5H0v3h.05A24 24 0 0022.5 48h3A24 24 0 0048 25.5v-3zm-4 0h-7.4c-.22-6.68-1.87-12.62-4.38-16.71a20 20 0 0111.7 16.71H44zM27.07 43.74c-.52.08-1 .14-1.57.18V25.5h8.09c-.3 8.87-3.21 15.58-6.52 18.24zM14.41 25.5h8.09v18.42c-.53 0-1.05-.1-1.57-.18-3.31-2.66-6.22-9.37-6.52-18.24zm6.52-21.24c.52-.08 1-.14 1.57-.18V22.5h-8.09c.3-8.87 3.21-15.58 6.52-18.24zM25.5 22.5V4.08c.53 0 1.05.1 1.57.18 3.31 2.66 6.22 9.37 6.52 18.24H25.5zM15.78 5.79c-2.51 4.09-4.16 10-4.38 16.71H4.08a20 20 0 0111.7-16.71zM4.08 25.5h7.32c.22 6.68 1.87 12.62 4.38 16.71A20 20 0 014.08 25.5zm28.14 16.71c2.51-4.09 4.16-10 4.38-16.71h7.32a20 20 0 01-11.7 16.71z" fill="#fff"/></symbol><symbol id="icon-pointer-small" viewBox="0 0 40 40">
<path d="M19.9667 15.5658C20.8527 15.5642 21.7192 15.8255 22.4565 16.3167C23.1939 16.8079 23.7688 17.5068 24.1086 18.325C24.4484 19.1432 24.5378 20.0438 24.3653 20.9129C24.1929 21.7819 23.7664 22.5802 23.14 23.2066C22.5135 23.8331 21.7152 24.2595 20.8462 24.432C19.9772 24.6044 19.0766 24.5151 18.2584 24.1753C17.4402 23.8355 16.7412 23.2605 16.25 22.5232C15.7589 21.7858 15.4975 20.9193 15.4992 20.0334C15.5014 18.8492 15.9728 17.7141 16.8101 16.8768C17.6475 16.0394 18.7826 15.568 19.9667 15.5658ZM19.9667 12.238C18.423 12.238 16.9139 12.6959 15.6304 13.5538C14.3469 14.4116 13.3467 15.6309 12.7563 17.0573C12.1659 18.4837 12.0119 20.0532 12.3136 21.5672C12.6154 23.0812 13.3595 24.4716 14.4517 25.5627C15.5439 26.6537 16.9351 27.3963 18.4494 27.6964C19.9637 27.9966 21.5331 27.8409 22.9588 27.249C24.3846 26.657 25.6028 25.6555 26.4593 24.3711C27.3158 23.0867 27.7721 21.5772 27.7704 20.0334C27.7704 19.009 27.5685 17.9946 27.1762 17.0483C26.784 16.102 26.209 15.2423 25.4843 14.5183C24.7595 13.7943 23.8992 13.2203 22.9524 12.829C22.0057 12.4378 20.9911 12.2369 19.9667 12.238Z" fill="white"/>
<path d="M38.3361 18.3028H35.9235C35.5254 14.6585 33.889 11.2611 31.2877 8.67797C28.6864 6.09483 25.2776 4.48235 21.6306 4.10982V1.66389C21.6306 1.2226 21.4553 0.799384 21.1433 0.487343C20.8312 0.175303 20.408 0 19.9667 0C19.5254 0 19.1022 0.175303 18.7902 0.487343C18.4781 0.799384 18.3028 1.2226 18.3028 1.66389V4.10982C14.6678 4.49666 11.2745 6.11546 8.68655 8.69732C6.09864 11.2792 4.47189 14.6687 4.07654 18.3028H1.66389C1.2226 18.3028 0.799384 18.4781 0.487343 18.7902C0.175303 19.1022 0 19.5254 0 19.9667C0 20.408 0.175303 20.8312 0.487343 21.1433C0.799384 21.4553 1.2226 21.6306 1.66389 21.6306H4.06822C4.43346 25.2914 6.04795 28.7149 8.64028 31.3254C11.2326 33.9359 14.6447 35.5742 18.3028 35.9651V38.3361C18.3028 38.7774 18.4781 39.2006 18.7902 39.5127C19.1022 39.8247 19.5254 40 19.9667 40C20.408 40 20.8312 39.8247 21.1433 39.5127C21.4553 39.2006 21.6306 38.7774 21.6306 38.3361V35.9651C25.3013 35.5901 28.7298 33.9586 31.3358 31.3465C33.9418 28.7344 35.5654 25.3022 35.9318 21.6306H38.3361C38.7774 21.6306 39.2006 21.4553 39.5127 21.1433C39.8247 20.8312 40 20.408 40 19.9667C40 19.5254 39.8247 19.1022 39.5127 18.7902C39.2006 18.4781 38.7774 18.3028 38.3361 18.3028ZM19.9667 32.7205C17.4589 32.7139 15.0092 31.9642 12.9272 30.5661C10.8452 29.1681 9.22421 27.1843 8.26904 24.8654C7.31388 22.5466 7.06737 19.9967 7.56066 17.5378C8.05395 15.0789 9.26491 12.8214 11.0406 11.0504C12.8162 9.27937 15.0769 8.07434 17.5371 7.58749C19.9972 7.10064 22.5465 7.35383 24.8628 8.31506C27.1792 9.27629 29.1587 10.9025 30.5513 12.9881C31.9439 15.0738 32.6872 17.5254 32.6872 20.0333C32.685 21.7016 32.3542 23.3531 31.7138 24.8936C31.0734 26.434 30.1358 27.8333 28.9546 29.0114C27.7734 30.1895 26.3717 31.1234 24.8295 31.7598C23.2874 32.3962 21.635 32.7227 19.9667 32.7205Z" fill="white"/>
</symbol><symbol id="icon-pointer" viewBox="0 0 48 48">
<path d="M23.9601 18.6788C25.0232 18.6768 26.063 18.9904 26.9478 19.5798C27.8326 20.1692 28.5226 21.008 28.9304 21.9898C29.3381 22.9716 29.4453 24.0524 29.2384 25.0952C29.0315 26.138 28.5197 27.096 27.768 27.8477C27.0162 28.5995 26.0583 29.1112 25.0155 29.3181C23.9727 29.5251 22.8919 29.4179 21.91 29.0101C20.9282 28.6023 20.0895 27.9124 19.5001 27.0276C18.9106 26.1428 18.5971 25.103 18.599 24.0398C18.6017 22.6188 19.1673 21.2567 20.1722 20.2519C21.177 19.2471 22.5391 18.6814 23.9601 18.6788ZM23.9601 14.6854C22.1076 14.6854 20.2967 15.2349 18.7565 16.2643C17.2163 17.2937 16.016 18.7568 15.3076 20.4685C14.5991 22.1802 14.4142 24.0636 14.7764 25.8804C15.1385 27.6972 16.0314 29.3657 17.342 30.675C18.6526 31.9842 20.3221 32.8753 22.1393 33.2355C23.9565 33.5957 25.8397 33.4088 27.5506 32.6985C29.2616 31.9882 30.7234 30.7864 31.7512 29.2451C32.7789 27.7039 33.3265 25.8924 33.3245 24.0398C33.3245 22.8106 33.0822 21.5933 32.6115 20.4578C32.1407 19.3222 31.4508 18.2905 30.5811 17.4217C29.7114 16.553 28.679 15.8641 27.5429 15.3946C26.4069 14.9251 25.1894 14.6841 23.9601 14.6854Z" fill="white"/>
<path d="M46.0033 21.9634H43.1082C42.6304 17.5902 40.6668 13.5133 37.5453 10.4136C34.4237 7.3138 30.3331 5.37882 25.9567 4.93178V1.99667C25.9567 1.46712 25.7464 0.95926 25.3719 0.584812C24.9975 0.210363 24.4896 0 23.9601 0C23.4305 0 22.9227 0.210363 22.5482 0.584812C22.1738 0.95926 21.9634 1.46712 21.9634 1.99667V4.93178C17.6013 5.39599 13.5294 7.33855 10.4239 10.4368C7.31836 13.535 5.36627 17.6024 4.89185 21.9634H1.99667C1.46712 21.9634 0.95926 22.1738 0.584812 22.5482C0.210363 22.9227 0 23.4305 0 23.9601C0 24.4896 0.210363 24.9975 0.584812 25.3719C0.95926 25.7464 1.46712 25.9567 1.99667 25.9567H4.88186C5.32015 30.3497 7.25755 34.4578 10.3683 37.5904C13.4791 40.723 17.5736 42.6891 21.9634 43.1581V46.0033C21.9634 46.5329 22.1738 47.0407 22.5482 47.4152C22.9227 47.7896 23.4305 48 23.9601 48C24.4896 48 24.9975 47.7896 25.3719 47.4152C25.7464 47.0407 25.9567 46.5329 25.9567 46.0033V43.1581C30.3616 42.7082 34.4757 40.7503 37.6029 37.6158C40.7302 34.4813 42.6785 30.3626 43.1181 25.9567H46.0033C46.5329 25.9567 47.0407 25.7464 47.4152 25.3719C47.7896 24.9975 48 24.4896 48 23.9601C48 23.4305 47.7896 22.9227 47.4152 22.5482C47.0407 22.1738 46.5329 21.9634 46.0033 21.9634ZM23.9601 39.2646C20.9506 39.2567 18.011 38.3571 15.5126 36.6794C13.0142 35.0017 11.069 32.6212 9.92285 29.8385C8.77666 27.0559 8.48085 23.996 9.0728 21.0454C9.66474 18.0947 11.1179 15.3857 13.2487 13.2605C15.3795 11.1352 18.0923 9.68921 21.0445 9.10499C23.9967 8.52077 27.0558 8.82459 29.8354 9.97807C32.615 11.1316 34.9904 13.0829 36.6616 15.5857C38.3327 18.0886 39.2246 21.0305 39.2246 24.0399C39.222 26.0419 38.8251 28.0237 38.0566 29.8723C37.288 31.7208 36.1629 33.3999 34.7455 34.8136C33.328 36.2274 31.646 37.3481 29.7954 38.1118C27.9449 38.8755 25.962 39.2672 23.9601 39.2646Z" fill="white"/>
</symbol><symbol id="icon-tow-truck"><g opacity=".9" fill="#fff"><path d="M60 20.59l-3.626-2.372-5.127-8.529-12.583.012L15.491.098a1.279 1.279 0 00-1.375.257l-2.5 2.422-.002.002a1.106 1.106 0 00-.07.074l-.016.019a1.036 1.036 0 00-.061.08l-.012.017a1.124 1.124 0 00-.146.294l-.008.03a.79.79 0 00-.027.106.873.873 0 00-.019.124 1.03 1.03 0 00-.005.107v7.27c0 .67.56 1.212 1.25 1.212s1.25-.543 1.25-1.212V5.542l12.816 5.845 5.933 11.902v3.357H1.25c-.69 0-1.25.543-1.25 1.212 0 .67.56 1.212 1.25 1.212H2.5v4.874c0 .67.56 1.212 1.25 1.212h3.874C8.202 37.92 10.724 40 13.748 40c3.045 0 5.58-2.111 6.135-4.904h22.729c.553 2.793 3.09 4.904 6.134 4.904 3.045 0 5.581-2.111 6.136-4.904h5.092L60 20.59zm-6.548-2.422H45v-6.05l4.812-.005 3.64 6.055zM42.5 12.12v6.048h-2.49l.003-6.046 2.487-.002zm-12.34.905l2.34 1.067v3.628l-2.34-4.695zm4.122-.797L14.64 3.27l.645-.624 22.21 9.204v14.796H35V13.323c0-.47-.279-.896-.718-1.095zM7.624 32.733H5V29.07h5.04a6.04 6.04 0 00-2.416 3.663zm6.124 4.845c-2.068 0-3.75-1.63-3.75-3.634 0-2.003 1.682-3.634 3.75-3.634s3.75 1.631 3.75 3.634c0 2.004-1.682 3.634-3.75 3.634zm6.11-4.906a6.04 6.04 0 00-2.403-3.602h20.041v3.602H19.86zm28.888 4.906c-2.067 0-3.75-1.63-3.75-3.634 0-2.003 1.683-3.634 3.75-3.634 2.07 0 3.75 1.631 3.75 3.634 0 2.004-1.68 3.634-3.75 3.634zm6.112-4.906c-.604-2.732-3.109-4.783-6.112-4.783-3 0-5.507 2.05-6.11 4.783h-2.639l.01-12.081h15.525l1.967 1.286-.008 3.528h-1.243c-.69 0-1.25.543-1.25 1.213 0 .667.56 1.21 1.25 1.21h1.24l-.01 4.844h-2.62z"/><path d="M48.746 32.733c-.69 0-1.249.543-1.249 1.211 0 .67.559 1.212 1.25 1.212.69 0 1.25-.543 1.25-1.212 0-.669-.56-1.212-1.25-1.212zm-34.999 0c-.69 0-1.25.543-1.25 1.211 0 .67.56 1.212 1.25 1.212s1.25-.543 1.25-1.212c0-.669-.56-1.212-1.25-1.212zM6.261 19.405c-.003.157-.003 1.567 1.044 2.604.463.458 1.306 1.005 2.694 1.005 1.377 0 2.218-.547 2.68-1.005 1.031-1.018 1.061-2.407 1.06-2.636v-4.838c0-.669-.56-1.211-1.25-1.211s-1.25.542-1.25 1.211V19.4c-.003.113-.04.438-.19.706-.133.24-.363.486-1.05.486-.695 0-.928-.252-1.053-.47a1.596 1.596 0 01-.185-.682v.016h-.004a.942.942 0 00.004-.076c0-.67-.56-1.211-1.25-1.211s-1.25.542-1.25 1.21l.001.026z"/></g></symbol><symbol id="icon-tree-leaf"><path d="M10 9.562C10 4.4 5.566.317 5.377.146a.56.56 0 00-.754 0C4.434.317 0 4.401 0 9.562c0 1.246.531 2.518 1.458 3.49.829.87 1.87 1.404 2.977 1.541v2.834A.57.57 0 005 18a.57.57 0 00.566-.573v-2.834c1.106-.137 2.147-.671 2.976-1.541C9.47 12.08 10 10.808 10 9.562zM2.113 5.515l2.322 2.353v2.394L1.463 7.25c.17-.607.394-1.188.65-1.735zm3.453 4.748V7.868l2.32-2.352c.258.546.482 1.128.652 1.735l-2.972 3.012zM7.332 4.46l-.027.024-1.74 1.764v-4.25c.52.6 1.176 1.445 1.767 2.462zM4.435 1.997v4.25l-1.74-1.763c-.008-.009-.018-.017-.027-.025a16.598 16.598 0 011.767-2.462zM1.13 9.562c0-.326.022-.648.06-.966l3.244 3.287v1.554C2.51 13.123 1.13 11.252 1.13 9.562zm4.435 3.874v-1.552l3.243-3.287c.038.318.06.64.06.965 0 1.69-1.379 3.56-3.303 3.874z" fill="#fff"/></symbol><symbol id="icon-truck"><g opacity=".9" fill="#fff"><path d="M56 16.654l-2.334-4.765-4.668-9.506-11.665.01V1.191c0-.403-.2-.78-.532-.998a1.144 1.144 0 00-1.109-.09L25.418 4.765H1.167a1.16 1.16 0 00-.936.48A1.21 1.21 0 00.05 6.3l3.422 11.649-1.122 6.9c-.056.346.04.698.261.965.222.267.547.421.89.421h1.284C5.324 28.953 7.678 31 10.499 31c1.91 0 3.603-.937 4.668-2.382C16.23 30.063 17.924 31 19.833 31c2.822 0 5.176-2.047 5.716-4.766h11.9C37.991 28.953 40.344 31 43.166 31c2.821 0 5.176-2.047 5.716-4.766h7.094l.024-9.58zm-4.944-4.765h-9.073V4.77l5.575-.004 3.498 7.122zM39.65 4.774v7.115h-2.308l.003-7.113 2.305-.002zM2.735 7.148h22.93c.164 0 .325-.035.475-.103l8.858-4.02v13.653H5.535l-2.8-9.53zm7.764 21.468C8.57 28.616 7 27.014 7 25.044c0-1.972 1.57-3.574 3.5-3.574s3.5 1.602 3.5 3.574c0 1.97-1.57 3.572-3.5 3.572zm9.334 0c-1.93 0-3.5-1.602-3.5-3.572 0-1.972 1.57-3.574 3.5-3.574s3.5 1.602 3.5 3.574c0 1.97-1.57 3.572-3.5 3.572zm5.716-4.764c-.54-2.72-2.894-4.766-5.716-4.766-1.909 0-3.602.937-4.666 2.384-1.065-1.447-2.759-2.384-4.668-2.384-2.526 0-4.678 1.642-5.488 3.937l.644-3.962h29.343v4.79h-9.45zm17.617 4.764c-1.93 0-3.5-1.602-3.5-3.572 0-1.972 1.57-3.574 3.5-3.574 1.929 0 3.5 1.602 3.5 3.574 0 1.97-1.571 3.572-3.5 3.572zm10.482-4.764h-4.766c-.54-2.72-2.895-4.766-5.716-4.766-2.822 0-5.177 2.047-5.717 4.766h-.114l.005-9.581h14.885l1.44 2.942-.017 6.639z"/><path d="M43.165 23.852a1.18 1.18 0 00-1.167 1.192c0 .656.523 1.19 1.167 1.19a1.18 1.18 0 001.168-1.19 1.18 1.18 0 00-1.168-1.192zm-32.665 0c-.645 0-1.167.532-1.167 1.192 0 .656.522 1.19 1.166 1.19a1.18 1.18 0 001.168-1.19 1.18 1.18 0 00-1.168-1.192zm9.333 0a1.18 1.18 0 00-1.167 1.192c0 .656.523 1.19 1.167 1.19a1.18 1.18 0 001.166-1.19c0-.66-.522-1.192-1.166-1.192zm-10.5-10.747h21a1.18 1.18 0 001.167-1.191 1.18 1.18 0 00-1.167-1.191h-21c-.644 0-1.167.533-1.167 1.191s.523 1.191 1.167 1.191z"/></g></symbol><symbol id="icon-umbrella"><path d="M23 3.33V2a2 2 0 10-4 0v1.33A21.06 21.06 0 000 24.27a2 2 0 001.736 1.984 2 2 0 00.944-.104A25.13 25.13 0 0119 25.74v16.17a2.09 2.09 0 01-4.18 0 2 2 0 00-4 0 6.088 6.088 0 008.42 5.626A6.09 6.09 0 0023 41.91V25.74a25.13 25.13 0 0116.36.41 2 2 0 002.456-.956 2 2 0 00.224-.924A21.06 21.06 0 0023 3.33zm-2 18.84a29.52 29.52 0 00-16.81-.68 17 17 0 0133.63 0 29.55 29.55 0 00-16.82.68z" fill="#fff"/></symbol><symbol id="icon-update"><path opacity=".25" d="M14 5.541H8.724l2.135-2.193c-2.123-2.104-5.56-2.181-7.683-.078a5.348 5.348 0 000 7.614 5.464 5.464 0 007.683 0c1.057-1.05 1.586-2.267 1.582-3.807H14c0 1.54-.684 3.539-2.053 4.896-2.729 2.703-7.161 2.703-9.89 0-2.73-2.703-2.749-7.085-.02-9.788a6.98 6.98 0 019.836 0L14 0v5.541z" fill="#383838"/></symbol><symbol id="icon-valid"><path d="M4.17 7.89L1.06 4.78 0 5.84 4.17 10l8.95-8.95L12.06 0 4.17 7.89z" fill="#64DD17"/></symbol></svg>