<svg xmlns="http://www.w3.org/2000/svg" xmlns:xlink="http://www.w3.org/1999/xlink"><symbol id="icon-arrow-left"><path opacity=".8" d="M5.789.204c.323.259.323.67 0 .928l-2.842 2.2h26.19c.477 0 .863.3.863.669 0 .369-.386.668-.863.668H2.947l2.842 2.2c.33.264.321.687-.021.944-.335.25-.865.25-1.2 0L.255 4.473c-.338-.26-.339-.684-.002-.945h.002L4.569.187c.342-.257.889-.25 1.22.016z" fill="#fff"/></symbol><symbol id="icon-arrow-less"><path d="M13 7L7 1 1 7" stroke="#fff"/></symbol><symbol id="icon-arrow-more"><path d="M1 1l6 6 6-6" stroke="#fff"/></symbol><symbol id="icon-arrow-small"><path d="M15.176 8.77a.776.776 0 010-1.043l2.368-2.476H.72C.322 5.25 0 4.914 0 4.499s.322-.751.72-.751h16.824l-2.368-2.475a.775.775 0 01.018-1.062.697.697 0 01.999 0l3.596 3.757a.775.775 0 01.001 1.063l-.001.001-3.596 3.757a.698.698 0 01-1.017-.018z" fill="#fff"/></symbol><symbol id="icon-arrow"><path d="M48.282 11.694a.911.911 0 010-1.392l3.789-3.301H1.15C.515 7 0 6.552 0 5.999c0-.553.515-1.002 1.15-1.002h50.92l-3.788-3.3c-.442-.397-.43-1.031.028-1.416a1.277 1.277 0 011.599 0l5.753 5.01c.45.39.45 1.025.002 1.417l-.002.001-5.753 5.01c-.457.384-1.186.373-1.627-.025z" fill="#fff"/></symbol><symbol id="icon-attach-file"><path d="M10.364 5.455V18A4.362 4.362 0 016 22.364 4.362 4.362 0 011.636 18V4.364a2.728 2.728 0 015.455 0v11.454a1.09 1.09 0 11-2.182 0V5.455H3.273v10.363a2.728 2.728 0 005.454 0V4.364A4.362 4.362 0 004.364 0 4.362 4.362 0 000 4.364V18a6 6 0 0012 0V5.455h-1.636z" fill="#383838" opacity=".8"/></symbol><symbol id="icon-bulldozer"><path opacity=".95" d="M9.975 24.65c-1.085 0-1.952.858-1.952 1.9 0 1.073.867 1.931 1.952 1.931 1.053 0 1.951-.858 1.951-1.931 0-1.042-.898-1.9-1.951-1.9zm21.219 0c-1.084 0-1.952.858-1.952 1.9 0 1.073.868 1.931 1.952 1.931a1.933 1.933 0 001.951-1.931c0-1.042-.867-1.9-1.951-1.9zm6.784 1.992c0-2.637-2.168-4.752-4.802-4.752H7.466c-2.665 0-4.802 2.115-4.802 4.752 0 2.606 2.137 4.752 4.801 4.752h25.711c2.634 0 4.802-2.146 4.802-4.752zM11.709 12.509c.248.184.496.337.713.551h12.7L21.157 2.115H11.71V12.51zm28.933 14.133c0 4.047-3.346 7.358-7.466 7.358H7.466C3.345 34 0 30.689 0 26.642c0-2.207.96-4.17 2.51-5.518v-3.649c0-3.25 2.663-5.917 5.978-5.917.371 0 .743.062 1.084.123V1.073C9.572.491 10.068 0 10.656 0h11.307c.495 0 .93.337 1.022.797l4.399 12.6h.62c0 .185-.032.369-.032.553v3.31l.031 1.993h5.173c4.12 0 7.466 3.311 7.466 7.389zM51.98 16.617c-.031.122-.155.214-.28.306l-6.195 3.005-3.469 1.471c-.062.031-.155.031-.217.031a.495.495 0 01-.434-.245.485.485 0 01.093-.675l1.332-1.195 2.107-2.024-3.47-5.886a.644.644 0 010-.583.593.593 0 01.527-.214l2.323.306-2.85-4.844-3.097.89-5.05 10.883h-5.297v-2.606h3.594l4.832-10.485 6.288-1.747 4.926 8.4 1.735.215c.154.03.31.153.402.306l2.169 4.262c.062.122.062.276.03.429z" fill="#fff"/></symbol><symbol id="icon-bullet-active"><path d="M0 0h59l5 6-5 6H0l5-6-5-6z" fill="#E75333"/></symbol><symbol id="icon-bullet"><path d="M0 0h59l5 6-5 6H0l5-6-5-6z" fill="#fff"/></symbol><symbol id="icon-bus"><g opacity=".9" fill="#fff"><path d="M52.5 0h-49C1.57 0 0 1.587 0 3.536V23.57c0 1.95 1.57 3.535 3.5 3.535h1.166C4.666 30.356 7.284 33 10.5 33c3.216 0 5.834-2.645 5.834-5.894h21c0 3.25 2.615 5.894 5.831 5.894C46.383 33 49 30.355 49 27.106h3.5c1.931 0 3.5-1.585 3.5-3.535V3.536C56 1.586 54.431 0 52.5 0zM42 7.071h11.665v7.071H42v-7.07zM3.5 24.748a1.173 1.173 0 01-1.166-1.177h3.502c-.27.362-.498.757-.68 1.177H3.5zm7 5.894c-1.93 0-3.5-1.585-3.5-3.536 0-1.95 1.57-3.535 3.5-3.535s3.5 1.584 3.5 3.535-1.57 3.536-3.5 3.536zm5.345-5.894c-.902-2.079-2.958-3.536-5.345-3.536H2.334V3.536c0-.65.523-1.179 1.166-1.179h49c.642 0 1.165.53 1.165 1.179v1.179H5.834c-.645 0-1.168.527-1.168 1.178v9.428c0 .651.523 1.179 1.168 1.179h12.832v8.248h-2.821zM35 14.142v-7.07h4.666v7.07H35zm-28 0v-7.07h4.666v7.07H7zm7-7.07h4.666v7.07H14v-7.07zm7 0h4.666v7.07H21v-7.07zm11.666 7.07H28v-7.07h4.666v7.07zM21 16.5h4.666v8.248H21V16.5zm7 0h4.666v8.248H28V16.5zm15.165 14.142c-1.927 0-3.5-1.585-3.5-3.536 0-1.95 1.573-3.535 3.5-3.535 1.931 0 3.5 1.584 3.5 3.535s-1.568 3.536-3.5 3.536zm9.335-5.894h-3.99c-.902-2.079-2.957-3.536-5.346-3.536-2.385 0-4.441 1.458-5.343 3.536H35V16.5h18.665v2.358h-2.33c-.647 0-1.17.526-1.17 1.177s.523 1.177 1.17 1.177h2.33v2.359c0 .649-.523 1.177-1.165 1.177z"/><path d="M9.675 26.274a1.183 1.183 0 000 1.665 1.153 1.153 0 001.65 0 1.183 1.183 0 000-1.665 1.153 1.153 0 00-1.65 0zm32.666 0a1.186 1.186 0 000 1.665 1.155 1.155 0 001.651 0 1.186 1.186 0 000-1.665 1.155 1.155 0 00-1.65 0z"/></g></symbol><symbol id="icon-car"><g opacity=".9" fill="#F7F7F7"><path d="M12.833 20.703c-.644 0-1.167.545-1.167 1.215 0 .673.523 1.219 1.167 1.219s1.166-.546 1.166-1.219c0-.67-.522-1.215-1.166-1.215z"/><path d="M53.872 10.51c-2.021-1.93-5.525-1.99-12.382-1.99-.542-.856-1.687-2.432-3.582-3.997C35.408 2.46 31.054 0 24.5 0c-6.553 0-10.914 2.458-13.417 4.519-1.9 1.564-3.05 3.14-3.594 3.995h-1.37a2.253 2.253 0 00-.57 0h-2.05c-.308 0-.605.128-.824.356L.342 11.302a1.245 1.245 0 00-.342.86v8.54c0 .339.136.663.374.895.29.278 2.904 2.73 5.437 2.73h1.666C8.372 26.485 10.436 28 12.834 28c2.396 0 4.46-1.514 5.357-3.674l19.619-.003C38.705 26.486 40.77 28 43.166 28c2.399 0 4.462-1.514 5.357-3.677h6.311c.643 0 1.166-.542 1.166-1.215 0-7.034 0-10.565-2.128-12.598zM36.367 6.355c.926.753 1.648 1.51 2.186 2.16h-15.22V2.461c.384-.02.773-.03 1.167-.03 4.676 0 8.668 1.32 11.867 3.923zM12.62 6.354c2.375-1.927 5.183-3.15 8.38-3.655v5.815H10.427a15.9 15.9 0 012.193-2.16zm-8.636 4.592h.682v1.217h-1.85l1.168-1.217zm8.85 14.62c-1.93 0-3.5-1.635-3.5-3.648 0-2.01 1.57-3.65 3.5-3.65 1.929 0 3.5 1.64 3.5 3.65 0 2.013-1.571 3.648-3.5 3.648zm30.331 0c-1.927 0-3.5-1.635-3.5-3.648 0-2.01 1.573-3.65 3.5-3.65 1.931 0 3.5 1.64 3.5 3.65 0 2.013-1.569 3.648-3.5 3.648zM49 21.893c-.014-3.343-2.625-6.054-5.835-6.054-3.206 0-5.817 2.711-5.83 6.054h-18.67c-.014-3.343-2.625-6.054-5.832-6.054-3.208 0-5.82 2.711-5.833 6.054H5.81c-1.149 0-2.68-1.084-3.477-1.75v-5.548h3.5c.644 0 1.166-.545 1.166-1.216v-2.433h33.739c.03.003.065.005.097.005 6.243 0 9.784 0 11.298 1.212h-1.982c-.646 0-1.167.544-1.167 1.216 0 .671.521 1.216 1.167 1.216h3.161c.315 1.647.35 4.037.353 7.298H49z"/><path d="M43.165 20.703c-.643 0-1.166.545-1.166 1.215 0 .673.523 1.219 1.166 1.219.646 0 1.169-.546 1.169-1.219 0-.67-.523-1.215-1.17-1.215zm-16.331-7.325H24.5c-.645 0-1.167.544-1.167 1.216 0 .672.523 1.217 1.167 1.217h2.333c.645 0 1.167-.545 1.167-1.217 0-.671-.522-1.216-1.166-1.216z"/></g></symbol><symbol id="icon-download"><path d="M.538 9.643c.298 0 .539.24.539.535v2.215c0 .295.241.535.538.535h10.77c.297 0 .538-.24.538-.535v-2.215c0-.296.241-.535.538-.535.298 0 .539.24.539.535v2.215C14 13.28 13.277 14 12.385 14H1.615C.723 14 0 13.28 0 12.393v-2.215c0-.296.241-.535.538-.535z" fill="#fff"/><path d="M3.94 7.264a.54.54 0 01.747 0l1.774 1.764V.536a.538.538 0 011.077 0v8.492l1.774-1.764a.54.54 0 01.761.013.534.534 0 010 .745L7.381 10.7a.54.54 0 01-.762.001L3.925 8.02a.534.534 0 01.013-.757z" fill="#fff"/></symbol><symbol id="icon-operator"><path d="M19.28.013C8.44.403 0 9.643 0 20.493v7.08a2.44 2.44 0 002.44 2.44h2.12A2.44 2.44 0 007 27.573v-7.12a2.44 2.44 0 00-2.44-2.44h-.42a16 16 0 0116.36-14 16.21 16.21 0 0115.3 14h-.36a2.44 2.44 0 00-2.44 2.44v7.12a2.43 2.43 0 002.34 2.44 15.5 15.5 0 01-12.4 13.14 3.34 3.34 0 100 3 18.49 18.49 0 0015.46-16.29 2.45 2.45 0 001.6-2.29v-7.56a19.999 19.999 0 00-20.72-20z" fill="#fff"/></symbol><symbol id="icon-planet"><path d="M48 22.5A24 24 0 0025.5.05V0h-3v.05A24 24 0 00.05 22.5H0v3h.05A24 24 0 0022.5 48h3A24 24 0 0048 25.5v-3zm-4 0h-7.4c-.22-6.68-1.87-12.62-4.38-16.71a20 20 0 0111.7 16.71H44zM27.07 43.74c-.52.08-1 .14-1.57.18V25.5h8.09c-.3 8.87-3.21 15.58-6.52 18.24zM14.41 25.5h8.09v18.42c-.53 0-1.05-.1-1.57-.18-3.31-2.66-6.22-9.37-6.52-18.24zm6.52-21.24c.52-.08 1-.14 1.57-.18V22.5h-8.09c.3-8.87 3.21-15.58 6.52-18.24zM25.5 22.5V4.08c.53 0 1.05.1 1.57.18 3.31 2.66 6.22 9.37 6.52 18.24H25.5zM15.78 5.79c-2.51 4.09-4.16 10-4.38 16.71H4.08a20 20 0 0111.7-16.71zM4.08 25.5h7.32c.22 6.68 1.87 12.62 4.38 16.71A20 20 0 014.08 25.5zm28.14 16.71c2.51-4.09 4.16-10 4.38-16.71h7.32a20 20 0 01-11.7 16.71z" fill="#fff"/></symbol><symbol id="icon-pointer"><path d="M19.967 15.566a4.476 4.476 0 11.016 8.952 4.476 4.476 0 01-.016-8.952zm0-3.328a7.803 7.803 0 107.803 7.795 7.795 7.795 0 00-7.803-7.795z" fill="#fff"/><path d="M38.336 18.303h-2.413A16.015 16.015 0 0021.631 4.11V1.664a1.664 1.664 0 00-3.328 0V4.11A16.015 16.015 0 004.077 18.303H1.664a1.664 1.664 0 100 3.328h2.404a16.015 16.015 0 0014.235 14.334v2.371a1.664 1.664 0 003.328 0v-2.37a16.007 16.007 0 0014.3-14.335h2.405a1.664 1.664 0 000-3.328zM19.966 32.72a12.687 12.687 0 1112.721-12.688 12.705 12.705 0 01-12.72 12.688z" fill="#fff"/></symbol><symbol id="icon-tow-truck"><g opacity=".9" fill="#fff"><path d="M60 20.59l-3.626-2.372-5.127-8.529-12.583.012L15.491.098a1.279 1.279 0 00-1.375.257l-2.5 2.422-.002.002a1.106 1.106 0 00-.07.074l-.016.019a1.036 1.036 0 00-.061.08l-.012.017a1.124 1.124 0 00-.146.294l-.008.03a.79.79 0 00-.027.106.873.873 0 00-.019.124 1.03 1.03 0 00-.005.107v7.27c0 .67.56 1.212 1.25 1.212s1.25-.543 1.25-1.212V5.542l12.816 5.845 5.933 11.902v3.357H1.25c-.69 0-1.25.543-1.25 1.212 0 .67.56 1.212 1.25 1.212H2.5v4.874c0 .67.56 1.212 1.25 1.212h3.874C8.202 37.92 10.724 40 13.748 40c3.045 0 5.58-2.111 6.135-4.904h22.729c.553 2.793 3.09 4.904 6.134 4.904 3.045 0 5.581-2.111 6.136-4.904h5.092L60 20.59zm-6.548-2.422H45v-6.05l4.812-.005 3.64 6.055zM42.5 12.12v6.048h-2.49l.003-6.046 2.487-.002zm-12.34.905l2.34 1.067v3.628l-2.34-4.695zm4.122-.797L14.64 3.27l.645-.624 22.21 9.204v14.796H35V13.323c0-.47-.279-.896-.718-1.095zM7.624 32.733H5V29.07h5.04a6.04 6.04 0 00-2.416 3.663zm6.124 4.845c-2.068 0-3.75-1.63-3.75-3.634 0-2.003 1.682-3.634 3.75-3.634s3.75 1.631 3.75 3.634c0 2.004-1.682 3.634-3.75 3.634zm6.11-4.906a6.04 6.04 0 00-2.403-3.602h20.041v3.602H19.86zm28.888 4.906c-2.067 0-3.75-1.63-3.75-3.634 0-2.003 1.683-3.634 3.75-3.634 2.07 0 3.75 1.631 3.75 3.634 0 2.004-1.68 3.634-3.75 3.634zm6.112-4.906c-.604-2.732-3.109-4.783-6.112-4.783-3 0-5.507 2.05-6.11 4.783h-2.639l.01-12.081h15.525l1.967 1.286-.008 3.528h-1.243c-.69 0-1.25.543-1.25 1.213 0 .667.56 1.21 1.25 1.21h1.24l-.01 4.844h-2.62z"/><path d="M48.746 32.733c-.69 0-1.249.543-1.249 1.211 0 .67.559 1.212 1.25 1.212.69 0 1.25-.543 1.25-1.212 0-.669-.56-1.212-1.25-1.212zm-34.999 0c-.69 0-1.25.543-1.25 1.211 0 .67.56 1.212 1.25 1.212s1.25-.543 1.25-1.212c0-.669-.56-1.212-1.25-1.212zM6.261 19.405c-.003.157-.003 1.567 1.044 2.604.463.458 1.306 1.005 2.694 1.005 1.377 0 2.218-.547 2.68-1.005 1.031-1.018 1.061-2.407 1.06-2.636v-4.838c0-.669-.56-1.211-1.25-1.211s-1.25.542-1.25 1.211V19.4c-.003.113-.04.438-.19.706-.133.24-.363.486-1.05.486-.695 0-.928-.252-1.053-.47a1.596 1.596 0 01-.185-.682v.016h-.004a.942.942 0 00.004-.076c0-.67-.56-1.211-1.25-1.211s-1.25.542-1.25 1.21l.001.026z"/></g></symbol><symbol id="icon-tree-leaf"><path d="M10 9.562C10 4.4 5.566.317 5.377.146a.56.56 0 00-.754 0C4.434.317 0 4.401 0 9.562c0 1.246.531 2.518 1.458 3.49.829.87 1.87 1.404 2.977 1.541v2.834A.57.57 0 005 18a.57.57 0 00.566-.573v-2.834c1.106-.137 2.147-.671 2.976-1.541C9.47 12.08 10 10.808 10 9.562zM2.113 5.515l2.322 2.353v2.394L1.463 7.25c.17-.607.394-1.188.65-1.735zm3.453 4.748V7.868l2.32-2.352c.258.546.482 1.128.652 1.735l-2.972 3.012zM7.332 4.46l-.027.024-1.74 1.764v-4.25c.52.6 1.176 1.445 1.767 2.462zM4.435 1.997v4.25l-1.74-1.763c-.008-.009-.018-.017-.027-.025a16.598 16.598 0 011.767-2.462zM1.13 9.562c0-.326.022-.648.06-.966l3.244 3.287v1.554C2.51 13.123 1.13 11.252 1.13 9.562zm4.435 3.874v-1.552l3.243-3.287c.038.318.06.64.06.965 0 1.69-1.379 3.56-3.303 3.874z" fill="#fff"/></symbol><symbol id="icon-truck"><g opacity=".9" fill="#fff"><path d="M56 16.654l-2.334-4.765-4.668-9.506-11.665.01V1.191c0-.403-.2-.78-.532-.998a1.144 1.144 0 00-1.109-.09L25.418 4.765H1.167a1.16 1.16 0 00-.936.48A1.21 1.21 0 00.05 6.3l3.422 11.649-1.122 6.9c-.056.346.04.698.261.965.222.267.547.421.89.421h1.284C5.324 28.953 7.678 31 10.499 31c1.91 0 3.603-.937 4.668-2.382C16.23 30.063 17.924 31 19.833 31c2.822 0 5.176-2.047 5.716-4.766h11.9C37.991 28.953 40.344 31 43.166 31c2.821 0 5.176-2.047 5.716-4.766h7.094l.024-9.58zm-4.944-4.765h-9.073V4.77l5.575-.004 3.498 7.122zM39.65 4.774v7.115h-2.308l.003-7.113 2.305-.002zM2.735 7.148h22.93c.164 0 .325-.035.475-.103l8.858-4.02v13.653H5.535l-2.8-9.53zm7.764 21.468C8.57 28.616 7 27.014 7 25.044c0-1.972 1.57-3.574 3.5-3.574s3.5 1.602 3.5 3.574c0 1.97-1.57 3.572-3.5 3.572zm9.334 0c-1.93 0-3.5-1.602-3.5-3.572 0-1.972 1.57-3.574 3.5-3.574s3.5 1.602 3.5 3.574c0 1.97-1.57 3.572-3.5 3.572zm5.716-4.764c-.54-2.72-2.894-4.766-5.716-4.766-1.909 0-3.602.937-4.666 2.384-1.065-1.447-2.759-2.384-4.668-2.384-2.526 0-4.678 1.642-5.488 3.937l.644-3.962h29.343v4.79h-9.45zm17.617 4.764c-1.93 0-3.5-1.602-3.5-3.572 0-1.972 1.57-3.574 3.5-3.574 1.929 0 3.5 1.602 3.5 3.574 0 1.97-1.571 3.572-3.5 3.572zm10.482-4.764h-4.766c-.54-2.72-2.895-4.766-5.716-4.766-2.822 0-5.177 2.047-5.717 4.766h-.114l.005-9.581h14.885l1.44 2.942-.017 6.639z"/><path d="M43.165 23.852a1.18 1.18 0 00-1.167 1.192c0 .656.523 1.19 1.167 1.19a1.18 1.18 0 001.168-1.19 1.18 1.18 0 00-1.168-1.192zm-32.665 0c-.645 0-1.167.532-1.167 1.192 0 .656.522 1.19 1.166 1.19a1.18 1.18 0 001.168-1.19 1.18 1.18 0 00-1.168-1.192zm9.333 0a1.18 1.18 0 00-1.167 1.192c0 .656.523 1.19 1.167 1.19a1.18 1.18 0 001.166-1.19c0-.66-.522-1.192-1.166-1.192zm-10.5-10.747h21a1.18 1.18 0 001.167-1.191 1.18 1.18 0 00-1.167-1.191h-21c-.644 0-1.167.533-1.167 1.191s.523 1.191 1.167 1.191z"/></g></symbol><symbol id="icon-umbrella"><path d="M23 3.33V2a2 2 0 10-4 0v1.33A21.06 21.06 0 000 24.27a2 2 0 001.736 1.984 2 2 0 00.944-.104A25.13 25.13 0 0119 25.74v16.17a2.09 2.09 0 01-4.18 0 2 2 0 00-4 0 6.088 6.088 0 008.42 5.626A6.09 6.09 0 0023 41.91V25.74a25.13 25.13 0 0116.36.41 2 2 0 002.456-.956 2 2 0 00.224-.924A21.06 21.06 0 0023 3.33zm-2 18.84a29.52 29.52 0 00-16.81-.68 17 17 0 0133.63 0 29.55 29.55 0 00-16.82.68z" fill="#fff"/></symbol><symbol id="icon-unvalid"><path fill-rule="evenodd" clip-rule="evenodd" d="M5.001 5.709l4.292 4.292.707-.707-4.292-4.292L10.002.707 9.295 0 5.001 4.295.707 0 0 .707l4.294 4.295L.003 9.294l.707.707L5 5.71z" fill="#D9453D"/></symbol><symbol id="icon-update"><path opacity=".25" d="M14 5.541H8.724l2.135-2.193c-2.123-2.104-5.56-2.181-7.683-.078a5.348 5.348 0 000 7.614 5.464 5.464 0 007.683 0c1.057-1.05 1.586-2.267 1.582-3.807H14c0 1.54-.684 3.539-2.053 4.896-2.729 2.703-7.161 2.703-9.89 0-2.73-2.703-2.749-7.085-.02-9.788a6.98 6.98 0 019.836 0L14 0v5.541z" fill="#383838"/></symbol><symbol id="icon-valid"><path d="M4.17 7.89L1.06 4.78 0 5.84 4.17 10l8.95-8.95L12.06 0 4.17 7.89z" fill="#64DD17"/></symbol></svg>