<svg width="60" height="40" fill="none" xmlns="http://www.w3.org/2000/svg"><g opacity=".9" fill="#fff"><path d="M60 20.59l-3.626-2.372-5.127-8.529-12.583.012L15.491.098a1.279 1.279 0 00-1.375.257l-2.5 2.422-.002.002a1.106 1.106 0 00-.07.074l-.016.019a1.036 1.036 0 00-.061.08l-.012.017a1.124 1.124 0 00-.146.294l-.008.03a.79.79 0 00-.027.106.873.873 0 00-.019.124 1.03 1.03 0 00-.005.107v7.27c0 .67.56 1.212 1.25 1.212s1.25-.543 1.25-1.212V5.542l12.816 5.845 5.933 11.902v3.357H1.25c-.69 0-1.25.543-1.25 1.212 0 .67.56 1.212 1.25 1.212H2.5v4.874c0 .67.56 1.212 1.25 1.212h3.874C8.202 37.92 10.724 40 13.748 40c3.045 0 5.58-2.111 6.135-4.904h22.729c.553 2.793 3.09 4.904 6.134 4.904 3.045 0 5.581-2.111 6.136-4.904h5.092L60 20.59zm-6.548-2.422H45v-6.05l4.812-.005 3.64 6.055zM42.5 12.12v6.048h-2.49l.003-6.046 2.487-.002zm-12.34.905l2.34 1.067v3.628l-2.34-4.695zm4.122-.797L14.64 3.27l.645-.624 22.21 9.204v14.796H35V13.323c0-.47-.279-.896-.718-1.095zM7.624 32.733H5V29.07h5.04a6.04 6.04 0 00-2.416 3.663zm6.124 4.845c-2.068 0-3.75-1.63-3.75-3.634 0-2.003 1.682-3.634 3.75-3.634s3.75 1.631 3.75 3.634c0 2.004-1.682 3.634-3.75 3.634zm6.11-4.906a6.04 6.04 0 00-2.403-3.602h20.041v3.602H19.86zm28.888 4.906c-2.067 0-3.75-1.63-3.75-3.634 0-2.003 1.683-3.634 3.75-3.634 2.07 0 3.75 1.631 3.75 3.634 0 2.004-1.68 3.634-3.75 3.634zm6.112-4.906c-.604-2.732-3.109-4.783-6.112-4.783-3 0-5.507 2.05-6.11 4.783h-2.639l.01-12.081h15.525l1.967 1.286-.008 3.528h-1.243c-.69 0-1.25.543-1.25 1.213 0 .667.56 1.21 1.25 1.21h1.24l-.01 4.844h-2.62z"/><path d="M48.746 32.733c-.69 0-1.249.543-1.249 1.211 0 .67.559 1.212 1.25 1.212.69 0 1.25-.543 1.25-1.212 0-.669-.56-1.212-1.25-1.212zm-34.999 0c-.69 0-1.25.543-1.25 1.211 0 .67.56 1.212 1.25 1.212s1.25-.543 1.25-1.212c0-.669-.56-1.212-1.25-1.212zM6.261 19.405c-.003.157-.003 1.567 1.044 2.604.463.458 1.306 1.005 2.694 1.005 1.377 0 2.218-.547 2.68-1.005 1.031-1.018 1.061-2.407 1.06-2.636v-4.838c0-.669-.56-1.211-1.25-1.211s-1.25.542-1.25 1.211V19.4c-.003.113-.04.438-.19.706-.133.24-.363.486-1.05.486-.695 0-.928-.252-1.053-.47a1.596 1.596 0 01-.185-.682v.016h-.004a.942.942 0 00.004-.076c0-.67-.56-1.211-1.25-1.211s-1.25.542-1.25 1.21l.001.026z"/></g></svg>