<svg width="56" height="33" fill="none" xmlns="http://www.w3.org/2000/svg"><g opacity=".9" fill="#fff"><path d="M52.5 0h-49C1.57 0 0 1.587 0 3.536V23.57c0 1.95 1.57 3.535 3.5 3.535h1.166C4.666 30.356 7.284 33 10.5 33c3.216 0 5.834-2.645 5.834-5.894h21c0 3.25 2.615 5.894 5.831 5.894C46.383 33 49 30.355 49 27.106h3.5c1.931 0 3.5-1.585 3.5-3.535V3.536C56 1.586 54.431 0 52.5 0zM42 7.071h11.665v7.071H42v-7.07zM3.5 24.748a1.173 1.173 0 01-1.166-1.177h3.502c-.27.362-.498.757-.68 1.177H3.5zm7 5.894c-1.93 0-3.5-1.585-3.5-3.536 0-1.95 1.57-3.535 3.5-3.535s3.5 1.584 3.5 3.535-1.57 3.536-3.5 3.536zm5.345-5.894c-.902-2.079-2.958-3.536-5.345-3.536H2.334V3.536c0-.65.523-1.179 1.166-1.179h49c.642 0 1.165.53 1.165 1.179v1.179H5.834c-.645 0-1.168.527-1.168 1.178v9.428c0 .651.523 1.179 1.168 1.179h12.832v8.248h-2.821zM35 14.142v-7.07h4.666v7.07H35zm-28 0v-7.07h4.666v7.07H7zm7-7.07h4.666v7.07H14v-7.07zm7 0h4.666v7.07H21v-7.07zm11.666 7.07H28v-7.07h4.666v7.07zM21 16.5h4.666v8.248H21V16.5zm7 0h4.666v8.248H28V16.5zm15.165 14.142c-1.927 0-3.5-1.585-3.5-3.536 0-1.95 1.573-3.535 3.5-3.535 1.931 0 3.5 1.584 3.5 3.535s-1.568 3.536-3.5 3.536zm9.335-5.894h-3.99c-.902-2.079-2.957-3.536-5.346-3.536-2.385 0-4.441 1.458-5.343 3.536H35V16.5h18.665v2.358h-2.33c-.647 0-1.17.526-1.17 1.177s.523 1.177 1.17 1.177h2.33v2.359c0 .649-.523 1.177-1.165 1.177z"/><path d="M9.675 26.274a1.183 1.183 0 000 1.665 1.153 1.153 0 001.65 0 1.183 1.183 0 000-1.665 1.153 1.153 0 00-1.65 0zm32.666 0a1.186 1.186 0 000 1.665 1.155 1.155 0 001.651 0 1.186 1.186 0 000-1.665 1.155 1.155 0 00-1.65 0z"/></g></svg>