<svg width="56" height="12" viewBox="0 0 56 12" fill="none" xmlns="http://www.w3.org/2000/svg">
<path d="M48.2817 11.6941C47.851 11.3059 47.851 10.6903 48.2817 10.3021L52.0707 7.00092L1.15068 7.00092C0.515168 7.00092 0 6.55236 0 5.99902C0 5.44567 0.515168 4.99712 1.15068 4.99712L52.0708 4.99712L48.2817 1.69789C47.8402 1.29988 47.8528 0.665644 48.3099 0.281251C48.7558 -0.0937502 49.4627 -0.0937502 49.9087 0.281251L55.662 5.29064C56.1119 5.68143 56.1128 6.31578 55.664 6.70752L55.662 6.70934L49.9087 11.7187C49.4515 12.1032 48.7231 12.0921 48.2817 11.6941Z" fill="white"/>
</svg>
