<svg width="40" height="40" fill="none" xmlns="http://www.w3.org/2000/svg"><path d="M19.967 15.566a4.476 4.476 0 11.016 8.952 4.476 4.476 0 01-.016-8.952zm0-3.328a7.803 7.803 0 107.803 7.795 7.795 7.795 0 00-7.803-7.795z" fill="#fff"/><path d="M38.336 18.303h-2.413A16.015 16.015 0 0021.631 4.11V1.664a1.664 1.664 0 00-3.328 0V4.11A16.015 16.015 0 004.077 18.303H1.664a1.664 1.664 0 100 3.328h2.404a16.015 16.015 0 0014.235 14.334v2.371a1.664 1.664 0 003.328 0v-2.37a16.007 16.007 0 0014.3-14.335h2.405a1.664 1.664 0 000-3.328zM19.966 32.72a12.687 12.687 0 1112.721-12.688 12.705 12.705 0 01-12.72 12.688z" fill="#fff"/></svg>