<svg width="56" height="28" fill="none" xmlns="http://www.w3.org/2000/svg"><g opacity=".9" fill="#F7F7F7"><path d="M12.833 20.703c-.644 0-1.167.545-1.167 1.215 0 .673.523 1.219 1.167 1.219s1.166-.546 1.166-1.219c0-.67-.522-1.215-1.166-1.215z"/><path d="M53.872 10.51c-2.021-1.93-5.525-1.99-12.382-1.99-.542-.856-1.687-2.432-3.582-3.997C35.408 2.46 31.054 0 24.5 0c-6.553 0-10.914 2.458-13.417 4.519-1.9 1.564-3.05 3.14-3.594 3.995h-1.37a2.253 2.253 0 00-.57 0h-2.05c-.308 0-.605.128-.824.356L.342 11.302a1.245 1.245 0 00-.342.86v8.54c0 .339.136.663.374.895.29.278 2.904 2.73 5.437 2.73h1.666C8.372 26.485 10.436 28 12.834 28c2.396 0 4.46-1.514 5.357-3.674l19.619-.003C38.705 26.486 40.77 28 43.166 28c2.399 0 4.462-1.514 5.357-3.677h6.311c.643 0 1.166-.542 1.166-1.215 0-7.034 0-10.565-2.128-12.598zM36.367 6.355c.926.753 1.648 1.51 2.186 2.16h-15.22V2.461c.384-.02.773-.03 1.167-.03 4.676 0 8.668 1.32 11.867 3.923zM12.62 6.354c2.375-1.927 5.183-3.15 8.38-3.655v5.815H10.427a15.9 15.9 0 012.193-2.16zm-8.636 4.592h.682v1.217h-1.85l1.168-1.217zm8.85 14.62c-1.93 0-3.5-1.635-3.5-3.648 0-2.01 1.57-3.65 3.5-3.65 1.929 0 3.5 1.64 3.5 3.65 0 2.013-1.571 3.648-3.5 3.648zm30.331 0c-1.927 0-3.5-1.635-3.5-3.648 0-2.01 1.573-3.65 3.5-3.65 1.931 0 3.5 1.64 3.5 3.65 0 2.013-1.569 3.648-3.5 3.648zM49 21.893c-.014-3.343-2.625-6.054-5.835-6.054-3.206 0-5.817 2.711-5.83 6.054h-18.67c-.014-3.343-2.625-6.054-5.832-6.054-3.208 0-5.82 2.711-5.833 6.054H5.81c-1.149 0-2.68-1.084-3.477-1.75v-5.548h3.5c.644 0 1.166-.545 1.166-1.216v-2.433h33.739c.03.003.065.005.097.005 6.243 0 9.784 0 11.298 1.212h-1.982c-.646 0-1.167.544-1.167 1.216 0 .671.521 1.216 1.167 1.216h3.161c.315 1.647.35 4.037.353 7.298H49z"/><path d="M43.165 20.703c-.643 0-1.166.545-1.166 1.215 0 .673.523 1.219 1.166 1.219.646 0 1.169-.546 1.169-1.219 0-.67-.523-1.215-1.17-1.215zm-16.331-7.325H24.5c-.645 0-1.167.544-1.167 1.216 0 .672.523 1.217 1.167 1.217h2.333c.645 0 1.167-.545 1.167-1.217 0-.671-.522-1.216-1.166-1.216z"/></g></svg>