<svg width="10" height="18" fill="none" xmlns="http://www.w3.org/2000/svg"><path d="M10 9.562C10 4.4 5.566.317 5.377.146a.56.56 0 00-.754 0C4.434.317 0 4.401 0 9.562c0 1.246.531 2.518 1.458 3.49.829.87 1.87 1.404 2.977 1.541v2.834A.57.57 0 005 18a.57.57 0 00.566-.573v-2.834c1.106-.137 2.147-.671 2.976-1.541C9.47 12.08 10 10.808 10 9.562zM2.113 5.515l2.322 2.353v2.394L1.463 7.25c.17-.607.394-1.188.65-1.735zm3.453 4.748V7.868l2.32-2.352c.258.546.482 1.128.652 1.735l-2.972 3.012zM7.332 4.46l-.027.024-1.74 1.764v-4.25c.52.6 1.176 1.445 1.767 2.462zM4.435 1.997v4.25l-1.74-1.763c-.008-.009-.018-.017-.027-.025a16.598 16.598 0 011.767-2.462zM1.13 9.562c0-.326.022-.648.06-.966l3.244 3.287v1.554C2.51 13.123 1.13 11.252 1.13 9.562zm4.435 3.874v-1.552l3.243-3.287c.038.318.06.64.06.965 0 1.69-1.379 3.56-3.303 3.874z" fill="#fff"/></svg>